<svg width="10" height="6" viewBox="0 0 10 6" fill="none" xmlns="http://www.w3.org/2000/svg">
<path d="M8.8373 0.519775H1.1627C0.523313 0.519775 0 0.674716 0 0.864346V5.27657C0 5.4662 0.523313 5.62129 1.1627 5.62129H8.8373C9.47669 5.62129 10 5.46649 10 5.27672V0.864346C10 0.674716 9.47669 0.519775 8.8373 0.519775ZM3.77238 0.768146H6.22762C6.30533 0.768146 6.36829 0.786803 6.36829 0.809978C6.36829 0.833008 6.30533 0.851665 6.22762 0.851665H3.77238C3.69467 0.851665 3.63171 0.833008 3.63171 0.809978C3.63171 0.786803 3.69467 0.768146 3.77238 0.768146ZM5 5.449C4.67883 5.449 4.41865 5.37189 4.41865 5.27657C4.41865 5.18124 4.67883 5.10428 5 5.10428C5.32117 5.10428 5.58135 5.18124 5.58135 5.27657C5.58135 5.37189 5.32117 5.449 5 5.449ZM9.19093 4.9836H0.809069V1.06622H9.19093V4.9836Z" fill="#005FA3"/>
</svg>
